<?xml version="1.0" standalone="no"?>
<!DOCTYPE svg PUBLIC "-//W3C//DTD SVG 20010904//EN"
 "http://www.w3.org/TR/2001/REC-SVG-20010904/DTD/svg10.dtd">
<svg version="1.0" xmlns="http://www.w3.org/2000/svg"
 width="56.000000pt" height="58.000000pt" viewBox="0 0 56.000000 58.000000"
 preserveAspectRatio="xMidYMid meet">
<metadata>
Created by potrace 1.16, written by Peter Selinger 2001-2019
</metadata>
<g transform="translate(0.000000,58.000000) scale(0.100000,-0.100000)"
fill="#000000" stroke="none">
<path d="M0 290 l0 -290 280 0 280 0 0 290 0 290 -280 0 -280 0 0 -290z m391
183 l99 -58 0 -115 0 -115 -40 -23 c-21 -12 -40 -22 -42 -22 -2 0 -2 49 0 109
l3 109 -29 21 c-41 28 -52 26 -52 -9 0 -28 -2 -30 -40 -30 l-40 0 0 85 c0 69
3 86 18 94 9 6 18 11 20 11 2 0 48 -26 103 -57z m-211 -126 l0 -113 29 -17
c39 -23 41 -22 41 13 0 28 2 30 40 30 l40 0 0 -85 c0 -75 -2 -86 -21 -95 -17
-10 -35 -2 -119 47 l-100 58 0 115 0 115 38 22 c20 12 40 22 45 23 4 0 7 -51
7 -113z"/>
</g>
</svg>
