<?xml version="1.0" standalone="no"?>
<!DOCTYPE svg PUBLIC "-//W3C//DTD SVG 20010904//EN"
 "http://www.w3.org/TR/2001/REC-SVG-20010904/DTD/svg10.dtd">
<svg version="1.0" xmlns="http://www.w3.org/2000/svg"
 width="400.000000pt" height="400.000000pt" viewBox="0 0 400.000000 400.000000"
 preserveAspectRatio="xMidYMid meet">
<metadata>
Created by potrace 1.16, written by Peter Selinger 2001-2019
</metadata>
<g transform="translate(0.000000,400.000000) scale(0.100000,-0.100000)"
fill="#000000" stroke="none">
<path d="M940 3059 l0 -191 23 6 c12 3 32 6 45 6 22 0 22 2 22 130 l0 130 970
0 970 0 0 -130 c0 -128 0 -130 23 -130 12 0 32 -3 45 -6 l22 -6 0 191 0 191
-1060 0 -1060 0 0 -191z"/>
<path d="M1810 2910 l0 -150 74 0 c88 0 119 10 142 45 22 33 9 85 -26 102 -20
10 -21 13 -8 18 9 4 22 20 29 36 10 26 9 34 -8 57 -23 31 -52 39 -140 41 l-63
1 0 -150z m174 104 c9 -8 16 -24 16 -34 0 -36 -27 -50 -101 -50 l-69 0 0 50 0
50 69 0 c50 0 74 -4 85 -16z m8 -131 c22 -20 23 -56 3 -77 -19 -19 -68 -29
-120 -24 l-40 3 -3 58 -3 57 72 0 c53 0 77 -4 91 -17z"/>
<path d="M2186 3052 c-3 -6 -56 -136 -113 -279 -3 -7 1 -13 10 -13 8 0 22 20
31 45 l18 45 68 0 68 0 18 -45 c9 -25 23 -45 30 -45 8 0 14 2 14 4 0 8 -105
271 -113 284 -9 14 -23 16 -31 4z"/>
<path d="M1214 2814 c-6 -24 -10 -26 -43 -20 -142 24 -326 16 -468 -20 -123
-31 -273 -104 -273 -134 0 -13 59 -30 108 -30 25 0 93 15 151 34 58 19 124 37
146 40 22 3 4 -4 -40 -17 -148 -44 -285 -112 -285 -142 0 -20 75 -38 128 -31
25 3 85 24 134 46 50 23 92 39 95 37 2 -2 -21 -15 -52 -27 -77 -31 -175 -96
-175 -116 0 -14 11 -16 78 -13 66 3 88 9 143 39 94 50 171 87 199 95 14 3 -20
-16 -75 -43 -105 -53 -185 -113 -185 -139 0 -13 11 -15 60 -11 47 3 82 15 153
51 51 26 83 41 73 34 -181 -118 -193 -130 -141 -143 40 -10 94 5 175 47 74 38
70 34 -20 -26 -117 -78 20 -106 142 -29 60 38 44 20 -28 -31 -71 -51 -98 -90
-73 -106 19 -12 81 -11 113 1 34 12 33 5 -4 -37 -53 -60 -28 -100 57 -90 38 4
43 2 37 -12 -4 -9 -9 -30 -11 -47 -4 -27 -1 -32 19 -37 29 -8 94 9 105 26 5 7
10 -6 13 -33 4 -40 8 -45 33 -48 15 -2 46 6 68 17 l39 21 0 -23 c0 -60 54 -71
101 -21 28 30 37 30 32 1 -11 -59 68 -46 101 16 16 32 16 30 13 -70 -3 -90 -8
-110 -35 -166 -20 -40 -54 -84 -93 -122 l-61 -59 22 -18 c32 -26 54 -22 97 15
l37 32 -21 -30 c-12 -16 -33 -41 -47 -54 -33 -31 -33 -49 0 -61 50 -19 62 -13
93 48 42 79 38 57 -5 -37 -42 -93 -42 -115 2 -119 46 -5 81 31 93 93 8 44 9
41 4 -30 -5 -97 15 -150 57 -150 41 0 62 53 56 145 -4 71 -4 72 5 24 8 -43 15
-54 42 -69 38 -20 80 -17 85 7 2 10 -13 53 -32 96 -43 96 -46 119 -5 40 31
-61 43 -67 93 -48 34 12 33 22 -7 67 -45 53 -66 84 -33 51 14 -15 37 -30 50
-34 27 -6 66 10 66 28 0 6 -27 40 -60 74 -87 90 -113 153 -118 279 -3 97 -3
99 13 70 20 -38 42 -55 71 -55 24 0 37 21 28 45 -9 22 3 18 33 -9 52 -49 103
-41 103 15 l0 29 39 -21 c22 -11 53 -19 68 -17 26 3 28 6 28 46 0 41 7 53 20
32 3 -5 24 -14 45 -20 70 -19 95 13 66 81 -6 14 -1 16 37 12 85 -10 110 30 57
90 -37 42 -38 49 -4 37 31 -12 94 -13 113 -1 24 16 2 49 -69 101 -39 29 -70
54 -70 56 0 2 23 -10 51 -28 42 -26 62 -31 113 -32 55 -1 61 1 61 19 0 14 -20
33 -62 60 -101 66 -102 67 -12 20 114 -60 223 -73 204 -24 -6 15 -107 86 -162
113 -18 9 -33 19 -33 21 0 3 45 -18 100 -47 79 -41 111 -53 160 -56 49 -4 60
-2 60 11 0 26 -80 86 -185 139 -55 27 -89 46 -75 43 28 -8 105 -45 199 -95 55
-30 77 -36 143 -39 65 -3 78 -1 78 12 0 30 -166 124 -279 158 -23 7 -39 14
-37 17 7 7 73 -17 176 -64 52 -23 116 -45 141 -49 54 -8 129 10 129 30 0 30
-127 93 -282 140 -46 14 -65 23 -43 19 22 -3 89 -22 149 -41 116 -37 206 -42
240 -13 15 12 15 14 1 30 -36 40 -197 104 -330 131 -70 15 -280 18 -377 6
l-68 -9 0 26 c0 39 -12 31 -44 -29 -69 -132 -153 -205 -342 -296 -91 -44 -131
-70 -163 -104 -24 -26 -44 -45 -46 -43 -1 2 -10 35 -19 74 -22 90 -66 169
-109 191 -81 42 -217 -8 -217 -81 0 -12 7 -14 30 -10 59 12 78 -40 39 -106
-22 -37 -67 -79 -84 -80 -5 0 -29 22 -53 50 -35 41 -65 60 -165 108 -189 92
-286 176 -348 305 -26 54 -36 58 -45 21z"/>
<path d="M940 2103 c0 -403 153 -743 454 -1011 138 -123 357 -253 534 -316
l72 -26 73 26 c200 72 417 206 569 352 210 202 331 414 390 687 21 98 38 405
22 405 -5 0 -26 -11 -47 -25 l-37 -26 0 -72 c0 -260 -90 -536 -239 -734 -151
-201 -389 -374 -658 -478 l-72 -28 -63 23 c-337 124 -638 377 -776 654 -83
168 -132 372 -132 553 l0 80 -40 27 c-22 14 -42 26 -45 26 -3 0 -5 -53 -5
-117z"/>
</g>
</svg>
